<svg width="381" height="394" viewBox="0 0 381 394" fill="none" xmlns="http://www.w3.org/2000/svg">
<path d="M58.4933 187.902C56.4376 186.927 70.9443 170.513 97.3 143.993C134.319 106.743 136.965 102.986 131.095 96.0211C124.864 88.6277 115.695 93.7081 93.1647 117.036C87.8426 122.547 80.8013 129.752 77.5173 133.047C74.2334 136.342 65.6387 145.16 58.4182 152.644C51.1977 160.127 44.9261 166.001 44.4813 165.697C44.0366 165.393 44.1254 160.469 44.6784 154.754C49.3358 106.633 80.8586 64.68 123.314 50.0978C141.949 43.6974 172.789 42.151 177.519 47.3799C180 50.1227 179.943 77.1709 177.424 91.8461C170.036 134.901 140.186 171.133 100.433 185.298C92.6879 188.058 62.7435 189.917 58.4933 187.902Z" fill="#71A44A"/>
<path d="M207.35 350.112C197.852 345.569 205.321 292.431 218.774 268.84C236.139 238.388 263.673 217.887 294.052 212.789C305.636 210.845 335.036 211.83 337.674 214.25C341.03 217.33 339.123 237.863 333.37 260.589C322.489 303.574 290.296 336.645 248.994 347.27C237.425 350.246 211.351 352.026 207.35 350.112Z" fill="#1B423A"/>
<path fill-rule="evenodd" clip-rule="evenodd" d="M76.1581 311.207C97.0138 334.89 121.358 347.318 152.218 350.036C178.563 352.357 180.519 351.137 180.519 332.384C180.519 278.215 146.324 230.104 97.3219 215.327C85.6397 211.804 51.877 210.991 45.1598 214.07L41.6721 215.669L42.3578 227.277C42.9526 237.348 44.727 246.792 49.041 262.849C52.453 275.548 65.9467 299.611 76.1581 311.207Z" fill="#288C4A"/>
<path d="M290.179 187.355C255.455 182.107 221.097 148.301 208.421 106.91C201.911 85.6544 199.96 51.0557 204.961 45.5603C209.166 40.94 242.951 43.1795 260.096 49.215C309.539 66.6198 341.629 117.117 330.348 159.764C324.483 181.938 311.832 190.627 290.179 187.355Z" fill="#1B423A"/>
</svg>
